<svg width="22" height="15" viewBox="0 0 22 15" fill="none" xmlns="http://www.w3.org/2000/svg">
<path d="M4.81575 14.2556H2.38997V3.47639C2.38997 2.73467 2.53284 2.11151 2.81859 1.6069C3.10433 1.09621 3.51167 0.710149 4.0406 0.448724C4.56953 0.187299 5.19269 0.0565865 5.91009 0.0565865C6.1472 0.0565865 6.37214 0.0717856 6.58493 0.102184C6.8038 0.132582 7.01963 0.17514 7.23241 0.229857L7.18682 2.06287C7.0713 2.03247 6.94363 2.01119 6.8038 1.99904C6.67005 1.98688 6.5211 1.9808 6.35694 1.9808C6.02864 1.9808 5.74898 2.03855 5.51795 2.15407C5.28693 2.26958 5.11062 2.43981 4.98902 2.66476C4.87351 2.88362 4.81575 3.15417 4.81575 3.47639V14.2556ZM6.81292 4.38834V6.12104H0.903497V4.38834H6.81292ZM8.38366 0.248096H10.8003V12.0761L10.5632 14.2556H8.38366V0.248096ZM17.1475 9.22166V9.41317C17.1475 10.1488 17.0654 10.8237 16.9013 11.4377C16.7432 12.0517 16.503 12.5837 16.1808 13.0336C15.8586 13.4774 15.4573 13.824 14.977 14.0732C14.5028 14.3164 13.9465 14.438 13.3082 14.438C12.7002 14.438 12.1713 14.3195 11.7214 14.0823C11.2776 13.8452 10.9037 13.5109 10.5997 13.0792C10.2957 12.6415 10.0525 12.1277 9.87013 11.538C9.68774 10.9422 9.55095 10.2917 9.45976 9.58644V9.06663C9.55095 8.35531 9.68774 7.70479 9.87013 7.11506C10.0525 6.52534 10.2957 6.01161 10.5997 5.57387C10.9037 5.13614 11.2776 4.79872 11.7214 4.56161C12.1652 4.3245 12.6881 4.20595 13.2899 4.20595C13.9344 4.20595 14.4967 4.33058 14.977 4.57985C15.4634 4.82303 15.8647 5.16957 16.1808 5.61947C16.503 6.06328 16.7432 6.59221 16.9013 7.20626C17.0654 7.81422 17.1475 8.48602 17.1475 9.22166ZM14.7308 9.41317V9.22166C14.7308 8.80217 14.6974 8.40699 14.6305 8.03613C14.5636 7.65919 14.4542 7.32785 14.3022 7.04211C14.1502 6.75636 13.9435 6.53142 13.6821 6.36727C13.4207 6.20312 13.0923 6.12104 12.6972 6.12104C12.3202 6.12104 11.998 6.18488 11.7305 6.31255C11.4691 6.44022 11.2502 6.61653 11.0739 6.84148C10.9037 7.06643 10.7699 7.33089 10.6726 7.63487C10.5815 7.93886 10.5207 8.26716 10.4903 8.61978V10.0424C10.5328 10.5105 10.6331 10.9331 10.7912 11.31C10.9493 11.6809 11.1833 11.9757 11.4934 12.1946C11.8095 12.4135 12.2169 12.5229 12.7154 12.5229C13.1045 12.5229 13.4298 12.4469 13.6912 12.2949C13.9526 12.1369 14.1593 11.918 14.3113 11.6383C14.4633 11.3526 14.5697 11.0212 14.6305 10.6443C14.6974 10.2674 14.7308 9.85699 14.7308 9.41317ZM19.0921 13.0792C19.0921 12.7144 19.2167 12.4074 19.466 12.1581C19.7153 11.9089 20.0527 11.7842 20.4783 11.7842C20.9039 11.7842 21.2413 11.9089 21.4905 12.1581C21.7398 12.4074 21.8644 12.7144 21.8644 13.0792C21.8644 13.4379 21.7398 13.7419 21.4905 13.9912C21.2413 14.2343 20.9039 14.3559 20.4783 14.3559C20.0527 14.3559 19.7153 14.2343 19.466 13.9912C19.2167 13.7419 19.0921 13.4379 19.0921 13.0792Z" fill="#00A5C9"/>
</svg>
