<svg width="19" height="19" viewBox="0 0 19 19" fill="none" xmlns="http://www.w3.org/2000/svg">
<path d="M2.63867 4.38834V14.2556H0.22201V4.38834H2.63867ZM0.0578596 1.80753C0.0578596 1.44883 0.179453 1.15092 0.422639 0.913817C0.671904 0.676711 1.00629 0.558158 1.42578 0.558158C1.84528 0.558158 2.17662 0.676711 2.4198 0.913817C2.66907 1.15092 2.7937 1.44883 2.7937 1.80753C2.7937 2.16015 2.66907 2.45501 2.4198 2.69212C2.17662 2.92922 1.84528 3.04778 1.42578 3.04778C1.00629 3.04778 0.671904 2.92922 0.422639 2.69212C0.179453 2.45501 0.0578596 2.16015 0.0578596 1.80753ZM11.3044 4.38834H13.493V13.9547C13.493 14.8484 13.2985 15.6053 12.9094 16.2254C12.5264 16.8516 11.9883 17.3258 11.2952 17.6481C10.6022 17.9764 9.79661 18.1405 8.87858 18.1405C8.48341 18.1405 8.05479 18.0858 7.59274 17.9764C7.13676 17.8669 6.69599 17.6937 6.27041 17.4566C5.85092 17.2255 5.50134 16.9246 5.22167 16.5537L6.30689 15.1311C6.63519 15.5141 7.00605 15.8029 7.41947 15.9974C7.83288 16.1981 8.27974 16.2984 8.76003 16.2984C9.2464 16.2984 9.65982 16.2072 10.0003 16.0248C10.3468 15.8485 10.6113 15.5871 10.7937 15.2405C10.9821 14.9001 11.0764 14.4806 11.0764 13.982V6.64085L11.3044 4.38834ZM4.63803 9.44053V9.24902C4.63803 8.49514 4.72922 7.81118 4.91161 7.19714C5.094 6.57701 5.35543 6.04504 5.69589 5.60123C6.04243 5.15742 6.45888 4.81391 6.94525 4.57073C7.43771 4.32754 7.99096 4.20595 8.605 4.20595C9.25552 4.20595 9.80269 4.3245 10.2465 4.56161C10.6964 4.79872 11.0673 5.13614 11.3591 5.57387C11.657 6.01161 11.888 6.53142 12.0522 7.1333C12.2224 7.72911 12.3531 8.38571 12.4443 9.10311V9.62292C12.3592 10.3221 12.2224 10.9635 12.0339 11.5471C11.8515 12.1308 11.6083 12.6415 11.3044 13.0792C11.0004 13.5109 10.6234 13.8452 10.1736 14.0823C9.72366 14.3195 9.19473 14.438 8.58676 14.438C7.9788 14.438 7.43163 14.3134 6.94525 14.0641C6.45888 13.8148 6.04243 13.4653 5.69589 13.0154C5.35543 12.5655 5.094 12.0365 4.91161 11.4286C4.72922 10.8206 4.63803 10.1579 4.63803 9.44053ZM7.04557 9.24902V9.44053C7.04557 9.86611 7.08813 10.2643 7.17324 10.6352C7.25836 11.006 7.38907 11.3343 7.56538 11.6201C7.74169 11.8997 7.9636 12.1186 8.2311 12.2767C8.49861 12.4348 8.81779 12.5138 9.18865 12.5138C9.68718 12.5138 10.0945 12.4104 10.4107 12.2037C10.7329 11.9909 10.9761 11.7022 11.1402 11.3374C11.3104 10.9665 11.4199 10.5501 11.4685 10.088V8.65626C11.4381 8.29148 11.3712 7.95406 11.2679 7.64399C11.1706 7.33393 11.0338 7.06643 10.8575 6.84148C10.6812 6.61653 10.4563 6.44022 10.1827 6.31255C9.90909 6.18488 9.58382 6.12104 9.20689 6.12104C8.84211 6.12104 8.52292 6.20312 8.24934 6.36727C7.97576 6.52534 7.75081 6.74724 7.5745 7.03299C7.39819 7.31873 7.26444 7.65007 7.17324 8.02701C7.08813 8.40395 7.04557 8.81129 7.04557 9.24902ZM15.8572 13.0792C15.8572 12.7144 15.9818 12.4074 16.2311 12.1581C16.4803 11.9089 16.8178 11.7842 17.2433 11.7842C17.6689 11.7842 18.0063 11.9089 18.2556 12.1581C18.5049 12.4074 18.6295 12.7144 18.6295 13.0792C18.6295 13.4379 18.5049 13.7419 18.2556 13.9912C18.0063 14.2343 17.6689 14.3559 17.2433 14.3559C16.8178 14.3559 16.4803 14.2343 16.2311 13.9912C15.9818 13.7419 15.8572 13.4379 15.8572 13.0792Z" fill="#00A5C9"/>
</svg>
