<svg width="30" height="30" viewBox="0 0 30 30" fill="none" xmlns="http://www.w3.org/2000/svg">
<rect x="0.769287" width="29.2308" height="29.2308" rx="14.6154" fill="white"/>
<path d="M16.8463 14.6153L14.2886 16.0769V13.1538L16.8463 14.6153Z" stroke="black" stroke-width="1.09615" stroke-linecap="round" stroke-linejoin="round"/>
<path d="M8.07715 15.1319V14.0978C8.07715 11.9823 8.07715 10.9241 8.73849 10.2438C9.40057 9.56268 10.4426 9.53345 12.5261 9.47426C13.5126 9.44649 14.5211 9.42676 15.3848 9.42676C16.2479 9.42676 17.2563 9.44649 18.2436 9.47426C20.327 9.53345 21.3691 9.56268 22.0305 10.2438C22.6925 10.9241 22.6925 11.983 22.6925 14.0978V15.1319C22.6925 17.2482 22.6925 18.3056 22.0312 18.9867C21.3691 19.667 20.3278 19.697 18.2436 19.7555C17.2571 19.784 16.2486 19.8037 15.3848 19.8037C14.4317 19.8008 13.4787 19.7847 12.5261 19.7555C10.4426 19.697 9.40057 19.6678 8.73849 18.9867C8.07715 18.3056 8.07715 17.2475 8.07715 15.1326V15.1319Z" stroke="black" stroke-width="1.09615"/>
</svg>
