<svg width="31" height="30" viewBox="0 0 31 30" fill="none" xmlns="http://www.w3.org/2000/svg">
<rect x="0.923096" width="29.2308" height="29.2308" rx="14.6154" fill="white"/>
<path d="M15.5381 17.5385C16.3133 17.5385 17.0568 17.2306 17.605 16.6824C18.1532 16.1342 18.4611 15.3907 18.4611 14.6155C18.4611 13.8402 18.1532 13.0967 17.605 12.5485C17.0568 12.0003 16.3133 11.6924 15.5381 11.6924C14.7628 11.6924 14.0193 12.0003 13.4711 12.5485C12.923 13.0967 12.615 13.8402 12.615 14.6155C12.615 15.3907 12.923 16.1342 13.4711 16.6824C14.0193 17.2306 14.7628 17.5385 15.5381 17.5385V17.5385Z" stroke="black" stroke-width="1.09615" stroke-linecap="round" stroke-linejoin="round"/>
<path d="M8.96118 17.5386V11.6924C8.96118 10.7234 9.34614 9.79399 10.0314 9.10876C10.7166 8.42353 11.646 8.03857 12.615 8.03857H18.4612C19.4302 8.03857 20.3596 8.42353 21.0448 9.10876C21.7301 9.79399 22.115 10.7234 22.115 11.6924V17.5386C22.115 18.5076 21.7301 19.437 21.0448 20.1222C20.3596 20.8075 19.4302 21.1924 18.4612 21.1924H12.615C11.646 21.1924 10.7166 20.8075 10.0314 20.1222C9.34614 19.437 8.96118 18.5076 8.96118 17.5386Z" stroke="black" stroke-width="1.09615"/>
<path d="M19.5574 10.6045L19.5654 10.5957" stroke="black" stroke-width="1.09615" stroke-linecap="round" stroke-linejoin="round"/>
</svg>
