<svg width="24" height="14" viewBox="0 0 24 14" fill="none" xmlns="http://www.w3.org/2000/svg">
<path d="M6.23925 3.38834V5.12104H0.585178V3.38834H6.23925ZM2.09901 0.962558H4.51567V10.4103C4.51567 10.7022 4.55519 10.9271 4.63423 11.0852C4.71326 11.2433 4.83181 11.3496 4.98989 11.4044C5.14796 11.4591 5.33643 11.4864 5.55529 11.4864C5.71336 11.4864 5.85928 11.4773 5.99303 11.4591C6.12678 11.4408 6.23925 11.4226 6.33045 11.4044L6.33957 13.21C6.13894 13.2769 5.91095 13.3316 5.65561 13.3742C5.40634 13.4167 5.12364 13.438 4.8075 13.438C4.26641 13.438 3.79219 13.3468 3.38486 13.1644C2.97752 12.976 2.66138 12.675 2.43643 12.2616C2.21148 11.8421 2.09901 11.2888 2.09901 10.6018V0.962558ZM10.6826 10.8846L12.8439 3.38834H14.376L13.92 5.97827L11.7405 13.2556H10.4182L10.6826 10.8846ZM9.48798 3.38834L11.1112 10.9028L11.2572 13.2556H9.7342L7.14427 3.38834H9.48798ZM16.3823 10.7934L17.9691 3.38834H20.3037L17.732 13.2556H16.209L16.3823 10.7934ZM14.6131 3.38834L16.7562 10.8116L17.0389 13.2556H15.7166L13.5188 5.97827L13.0719 3.38834H14.6131ZM20.7892 12.0792C20.7892 11.7144 20.9138 11.4074 21.1631 11.1581C21.4124 10.9089 21.7498 10.7842 22.1754 10.7842C22.6009 10.7842 22.9384 10.9089 23.1876 11.1581C23.4369 11.4074 23.5615 11.7144 23.5615 12.0792C23.5615 12.4379 23.4369 12.7419 23.1876 12.9912C22.9384 13.2343 22.6009 13.3559 22.1754 13.3559C21.7498 13.3559 21.4124 13.2343 21.1631 12.9912C20.9138 12.7419 20.7892 12.4379 20.7892 12.0792Z" fill="#00A5C9"/>
</svg>
