<svg width="30" height="30" viewBox="0 0 30 30" fill="none" xmlns="http://www.w3.org/2000/svg">
<rect width="29.2308" height="29.2308" rx="14.6154" fill="white"/>
<path d="M22.6543 8.04592C22.6543 8.04592 21.1796 8.917 20.3597 9.164C19.9196 8.65795 19.3347 8.29927 18.6841 8.13648C18.0335 7.97369 17.3486 8.01464 16.722 8.25379C16.0954 8.49294 15.5574 8.91875 15.1807 9.47364C14.804 10.0285 14.6069 10.6857 14.6159 11.3563V12.0871C13.3316 12.1204 12.0591 11.8356 10.9116 11.258C9.76409 10.6804 8.77724 9.828 8.03893 8.77669C8.03893 8.77669 5.11585 15.3536 11.6928 18.2767C10.1878 19.2983 8.39493 19.8105 6.57739 19.7382C13.1543 23.3921 21.1928 19.7382 21.1928 11.3344C21.1928 11.1312 21.1723 10.9281 21.1343 10.7278C21.8797 9.99269 22.6543 8.04592 22.6543 8.04592Z" stroke="black" stroke-width="1.09615" stroke-linecap="round" stroke-linejoin="round"/>
</svg>
